<svg width="202" height="28" viewBox="0 0 202 28" fill="none" xmlns="http://www.w3.org/2000/svg">
<path d="M13.159 0.00019456C13.091 0.00372176 13.0246 0.0210236 12.9642 0.0522393C12.9642 0.0522393 7.37545 2.81639 0.406262 3.73778C0.172116 3.76988 -0.00172373 3.96913 1.28967e-05 4.20349V13.9989C1.28967e-05 19.9996 3.31325 23.5591 6.57997 25.5386C9.84667 27.5181 13.1066 27.9947 13.1066 27.9947C13.1529 28.0018 13.2 28.0018 13.2463 27.9947C13.2463 27.9947 16.5063 27.5181 19.773 25.5386C23.0397 23.5591 26.3529 19.9996 26.3529 13.9989V4.20349C26.3549 3.96913 26.1808 3.76984 25.9467 3.73778C18.9775 2.81639 13.3888 0.0522393 13.3888 0.0522393C13.3179 0.0159091 13.2388 -0.00209812 13.159 0.00019456ZM13.1764 5.60149C17.849 5.60149 21.6452 9.36558 21.6452 13.9988C21.6452 18.632 17.849 22.4007 13.1764 22.4007C8.50384 22.4007 4.7077 18.632 4.7077 13.9988C4.7077 9.36558 8.50384 5.60149 13.1764 5.60149ZM11.2932 9.80016V12.136H8.94206C8.68217 12.135 8.47068 12.3431 8.46964 12.6008V15.4014C8.47058 15.6591 8.68217 15.8672 8.94206 15.8662H11.2932V18.202C11.2941 18.4601 11.5063 18.6683 11.7665 18.6668H14.5864C14.8462 18.6677 15.0577 18.4597 15.0588 18.202V15.8662H17.4108C17.6707 15.8671 17.8822 15.6591 17.8832 15.4014V12.6008C17.8823 12.3431 17.6707 12.135 17.4108 12.136H15.0588V9.80016C15.0578 9.54246 14.8462 9.33437 14.5864 9.33536H11.7422C11.4767 9.35882 11.293 9.55995 11.2932 9.80016Z" fill="white"/>
<path d="M41.79 25V4H44.43L51.69 14.74L58.95 4H61.56V25H59.04V8.08L51.69 19.03L44.34 8.14V25H41.79ZM73.0411 25.36C71.5811 25.36 70.2911 25.03 69.1711 24.37C68.0511 23.69 67.1711 22.76 66.5311 21.58C65.9111 20.4 65.6011 19.04 65.6011 17.5C65.6011 15.96 65.9111 14.6 66.5311 13.42C67.1711 12.24 68.0411 11.32 69.1411 10.66C70.2611 9.98 71.5411 9.64 72.9811 9.64C74.3811 9.64 75.5911 9.99 76.6111 10.69C77.6311 11.37 78.4211 12.33 78.9811 13.57C79.5411 14.81 79.8211 16.27 79.8211 17.95H67.4311L68.0311 17.44C68.0311 18.64 68.2411 19.67 68.6611 20.53C69.1011 21.39 69.7111 22.05 70.4911 22.51C71.2711 22.95 72.1611 23.17 73.1611 23.17C74.2211 23.17 75.1111 22.92 75.8311 22.42C76.5711 21.92 77.1411 21.26 77.5411 20.44L79.6111 21.49C79.2311 22.27 78.7211 22.95 78.0811 23.53C77.4611 24.11 76.7211 24.56 75.8611 24.88C75.0211 25.2 74.0811 25.36 73.0411 25.36ZM68.1811 16.42L67.5511 15.94H77.9011L77.2711 16.45C77.2711 15.49 77.0811 14.66 76.7011 13.96C76.3211 13.26 75.8111 12.72 75.1711 12.34C74.5311 11.96 73.7911 11.77 72.9511 11.77C72.1311 11.77 71.3511 11.96 70.6111 12.34C69.8911 12.72 69.3011 13.26 68.8411 13.96C68.4011 14.64 68.1811 15.46 68.1811 16.42ZM93.948 25L93.828 22.21V4H96.228V25H93.948ZM88.758 25.36C87.418 25.36 86.238 25.03 85.218 24.37C84.198 23.71 83.398 22.79 82.818 21.61C82.258 20.41 81.978 19.04 81.978 17.5C81.978 15.94 82.258 14.57 82.818 13.39C83.398 12.21 84.198 11.29 85.218 10.63C86.238 9.97 87.418 9.64 88.758 9.64C90.018 9.64 91.118 9.97 92.058 10.63C93.018 11.29 93.758 12.21 94.278 13.39C94.798 14.57 95.058 15.94 95.058 17.5C95.058 19.04 94.798 20.41 94.278 21.61C93.758 22.79 93.018 23.71 92.058 24.37C91.118 25.03 90.018 25.36 88.758 25.36ZM89.298 23.17C90.178 23.17 90.958 22.93 91.638 22.45C92.318 21.97 92.848 21.3 93.228 20.44C93.628 19.58 93.828 18.6 93.828 17.5C93.828 16.4 93.628 15.42 93.228 14.56C92.848 13.7 92.318 13.03 91.638 12.55C90.958 12.07 90.168 11.83 89.268 11.83C88.328 11.83 87.488 12.07 86.748 12.55C86.028 13.03 85.458 13.7 85.038 14.56C84.618 15.42 84.408 16.4 84.408 17.5C84.408 18.6 84.618 19.58 85.038 20.44C85.458 21.3 86.038 21.97 86.778 22.45C87.518 22.93 88.358 23.17 89.298 23.17ZM100.576 25V10H102.976V25H100.576ZM101.806 6.52C101.406 6.52 101.056 6.37 100.756 6.07C100.456 5.77 100.306 5.42 100.306 5.02C100.306 4.6 100.456 4.25 100.756 3.97C101.056 3.67 101.406 3.52 101.806 3.52C102.226 3.52 102.576 3.67 102.856 3.97C103.156 4.25 103.306 4.6 103.306 5.02C103.306 5.42 103.156 5.77 102.856 6.07C102.576 6.37 102.226 6.52 101.806 6.52ZM108.089 25V4H114.929C116.289 4 117.489 4.28 118.529 4.84C119.589 5.4 120.409 6.18 120.989 7.18C121.589 8.18 121.889 9.34 121.889 10.66C121.889 11.94 121.619 13.08 121.079 14.08C120.539 15.08 119.799 15.87 118.859 16.45C117.919 17.01 116.829 17.29 115.589 17.29H110.639V25H108.089ZM110.639 14.98H115.589C116.689 14.98 117.589 14.58 118.289 13.78C119.009 12.96 119.369 11.92 119.369 10.66C119.369 9.36 118.949 8.31 118.109 7.51C117.269 6.71 116.199 6.31 114.899 6.31H110.639V14.98ZM125.975 16.87C125.975 15.25 126.285 13.94 126.905 12.94C127.525 11.92 128.315 11.17 129.275 10.69C130.255 10.19 131.285 9.94 132.365 9.94V12.19C131.485 12.19 130.635 12.34 129.815 12.64C129.015 12.92 128.355 13.39 127.835 14.05C127.315 14.71 127.055 15.61 127.055 16.75L125.975 16.87ZM124.655 25V10H127.055V25H124.655ZM141.361 25.36C139.901 25.36 138.611 25.03 137.491 24.37C136.371 23.69 135.491 22.76 134.851 21.58C134.231 20.4 133.921 19.04 133.921 17.5C133.921 15.96 134.231 14.6 134.851 13.42C135.491 12.24 136.361 11.32 137.461 10.66C138.581 9.98 139.861 9.64 141.301 9.64C142.701 9.64 143.911 9.99 144.931 10.69C145.951 11.37 146.741 12.33 147.301 13.57C147.861 14.81 148.141 16.27 148.141 17.95H135.751L136.351 17.44C136.351 18.64 136.561 19.67 136.981 20.53C137.421 21.39 138.031 22.05 138.811 22.51C139.591 22.95 140.481 23.17 141.481 23.17C142.541 23.17 143.431 22.92 144.151 22.42C144.891 21.92 145.461 21.26 145.861 20.44L147.931 21.49C147.551 22.27 147.041 22.95 146.401 23.53C145.781 24.11 145.041 24.56 144.181 24.88C143.341 25.2 142.401 25.36 141.361 25.36ZM136.501 16.42L135.871 15.94H146.221L145.591 16.45C145.591 15.49 145.401 14.66 145.021 13.96C144.641 13.26 144.131 12.72 143.491 12.34C142.851 11.96 142.111 11.77 141.271 11.77C140.451 11.77 139.671 11.96 138.931 12.34C138.211 12.72 137.621 13.26 137.161 13.96C136.721 14.64 136.501 15.46 136.501 16.42ZM162.268 25L162.148 22.21V4H164.548V25H162.268ZM157.078 25.36C155.738 25.36 154.558 25.03 153.538 24.37C152.518 23.71 151.718 22.79 151.138 21.61C150.578 20.41 150.298 19.04 150.298 17.5C150.298 15.94 150.578 14.57 151.138 13.39C151.718 12.21 152.518 11.29 153.538 10.63C154.558 9.97 155.738 9.64 157.078 9.64C158.338 9.64 159.438 9.97 160.378 10.63C161.338 11.29 162.078 12.21 162.598 13.39C163.118 14.57 163.378 15.94 163.378 17.5C163.378 19.04 163.118 20.41 162.598 21.61C162.078 22.79 161.338 23.71 160.378 24.37C159.438 25.03 158.338 25.36 157.078 25.36ZM157.618 23.17C158.498 23.17 159.278 22.93 159.958 22.45C160.638 21.97 161.168 21.3 161.548 20.44C161.948 19.58 162.148 18.6 162.148 17.5C162.148 16.4 161.948 15.42 161.548 14.56C161.168 13.7 160.638 13.03 159.958 12.55C159.278 12.07 158.488 11.83 157.588 11.83C156.648 11.83 155.808 12.07 155.068 12.55C154.348 13.03 153.778 13.7 153.358 14.56C152.938 15.42 152.728 16.4 152.728 17.5C152.728 18.6 152.938 19.58 153.358 20.44C153.778 21.3 154.358 21.97 155.098 22.45C155.838 22.93 156.678 23.17 157.618 23.17ZM168.896 25V10H171.296V25H168.896ZM170.126 6.52C169.726 6.52 169.376 6.37 169.076 6.07C168.776 5.77 168.626 5.42 168.626 5.02C168.626 4.6 168.776 4.25 169.076 3.97C169.376 3.67 169.726 3.52 170.126 3.52C170.546 3.52 170.896 3.67 171.176 3.97C171.476 4.25 171.626 4.6 171.626 5.02C171.626 5.42 171.476 5.77 171.176 6.07C170.896 6.37 170.546 6.52 170.126 6.52ZM182.409 25.36C180.929 25.36 179.619 25.03 178.479 24.37C177.339 23.69 176.449 22.76 175.809 21.58C175.169 20.4 174.849 19.04 174.849 17.5C174.849 15.96 175.159 14.6 175.779 13.42C176.419 12.24 177.309 11.32 178.449 10.66C179.589 9.98 180.889 9.64 182.349 9.64C183.789 9.64 185.079 9.97 186.219 10.63C187.359 11.29 188.229 12.22 188.829 13.42L186.639 14.41C186.239 13.61 185.659 12.99 184.899 12.55C184.139 12.09 183.269 11.86 182.289 11.86C181.309 11.86 180.439 12.1 179.679 12.58C178.939 13.06 178.349 13.73 177.909 14.59C177.489 15.43 177.279 16.4 177.279 17.5C177.279 18.6 177.489 19.58 177.909 20.44C178.349 21.28 178.949 21.94 179.709 22.42C180.489 22.9 181.369 23.14 182.349 23.14C183.329 23.14 184.199 22.89 184.959 22.39C185.739 21.89 186.329 21.19 186.729 20.29L188.919 21.28C188.319 22.56 187.449 23.56 186.309 24.28C185.169 25 183.869 25.36 182.409 25.36ZM197.59 25.36C196.13 25.36 195 24.98 194.2 24.22C193.4 23.46 193 22.39 193 21.01V5.32H195.4V20.77C195.4 21.53 195.6 22.12 196 22.54C196.42 22.94 197 23.14 197.74 23.14C197.98 23.14 198.21 23.11 198.43 23.05C198.67 22.97 198.98 22.79 199.36 22.51L200.29 24.46C199.77 24.8 199.3 25.03 198.88 25.15C198.46 25.29 198.03 25.36 197.59 25.36ZM190.39 12.13V10H199.9V12.13H190.39Z" fill="white"/>
</svg>
